<svg width="15" height="15" viewBox="0 0 15 15" fill="none" xmlns="http://www.w3.org/2000/svg">
<path d="M5.37295 7.13762H3.46229L1.96045 5.38232L1.2197 6.01646L2.59601 7.62512L1.2197 9.23377L1.96045 9.86791L3.46229 8.11262H5.37295C5.64239 8.11262 5.86045 7.89456 5.86045 7.62512C5.86045 7.35568 5.64239 7.13762 5.37295 7.13762Z" fill="#646E69"/>
<path d="M6.74307 9.15271C6.51029 9.01797 6.21179 9.09748 6.07705 9.33124L5.1212 10.9851L2.85023 11.4117L3.03017 12.3695L5.11063 11.9791L5.81521 13.9782L6.73498 13.6544L5.96595 11.4723L6.92159 9.81869C7.05634 9.58591 6.97634 9.28746 6.74307 9.15271Z" fill="#646E69"/>
<path d="M10.1293 10.9851L9.17345 9.33124C9.03827 9.09748 8.73977 9.01797 8.50743 9.15271C8.27416 9.28746 8.19416 9.58596 8.32891 9.81874L9.28455 11.4723L8.51552 13.6545L9.43529 13.9782L10.1399 11.9792L12.2203 12.3696L12.4003 11.4117L10.1293 10.9851Z" fill="#646E69"/>
<path d="M14.0308 6.01646L13.29 5.38232L11.7882 7.13762H9.87755C9.6081 7.13762 9.39005 7.35568 9.39005 7.62512C9.39005 7.89456 9.6081 8.11262 9.87755 8.11262H11.7882L13.29 9.86791L14.0308 9.23377L12.6545 7.62512L14.0308 6.01646Z" fill="#646E69"/>
<path d="M12.4003 3.83846L12.2203 2.88062L10.1399 3.27101L9.43529 1.27197L8.51552 1.59572L9.28455 3.77787L8.32891 5.43147C8.19416 5.66425 8.27416 5.96275 8.50743 6.09749C8.58407 6.14176 8.66787 6.16272 8.75069 6.16272C8.91922 6.16272 9.08297 6.0756 9.17345 5.91897L10.1293 4.26512L12.4003 3.83846Z" fill="#646E69"/>
<path d="M6.92159 5.43122L5.96595 3.77762L6.73498 1.59548L5.81521 1.27173L5.11063 3.27077L3.03017 2.88038L2.85023 3.83822L5.1212 4.26483L6.07705 5.91868C6.16748 6.07531 6.33128 6.16243 6.49981 6.16243C6.58263 6.16243 6.66643 6.14146 6.74307 6.0972C6.97634 5.96245 7.05634 5.66401 6.92159 5.43122Z" fill="#646E69"/>
<path d="M8.75119 10.0625H6.49937C6.32514 10.0625 6.16422 9.96968 6.0771 9.81875L4.95117 7.86875C4.86405 7.71782 4.86405 7.53218 4.95117 7.38125L6.0771 5.43125C6.16422 5.28032 6.32514 5.1875 6.49937 5.1875H8.75119C8.92542 5.1875 9.08634 5.28032 9.17346 5.43125L10.2994 7.38125C10.3865 7.53218 10.3865 7.71782 10.2994 7.86875L9.17346 9.81875C9.08634 9.96968 8.92542 10.0625 8.75119 10.0625ZM6.78071 9.0875H8.4698L9.31434 7.625L8.4698 6.1625H6.78071L5.93616 7.625L6.78071 9.0875Z" fill="#646E69"/>
<path d="M7.62525 14.45C3.86189 14.45 0.800247 11.3884 0.800247 7.62505C0.800247 3.86169 3.86189 0.800049 7.62525 0.800049C11.3886 0.800049 14.4502 3.86169 14.4502 7.62505C14.4502 11.3884 11.3886 14.45 7.62525 14.45ZM7.62525 1.77505C4.39936 1.77505 1.77525 4.39916 1.77525 7.62505C1.77525 10.8509 4.39936 13.475 7.62525 13.475C10.8511 13.475 13.4752 10.8509 13.4752 7.62505C13.4752 4.39916 10.8511 1.77505 7.62525 1.77505Z" fill="#646E69"/>
</svg>
